<?xml version="1.0" encoding="UTF-8"?>
<svg width="1297px" height="316px" viewBox="0 0 1297 316" version="1.1" xmlns="http://www.w3.org/2000/svg" xmlns:xlink="http://www.w3.org/1999/xlink">
    <!-- Generator: Sketch 50.2 (55047) - http://www.bohemiancoding.com/sketch -->
    <title>Artboard</title>
    <desc>Created with Sketch.</desc>
    <defs></defs>
    <g id="Artboard" stroke="none" stroke-width="1" fill="none" fill-rule="evenodd">
        <path d="M48.3309048,315.8 C35.9309048,315.8 22.7309048,307.4 21.9309048,291.4 C11.1309048,289.8 1.53090484,281 0.330904844,265.4 C-1.26909516,238.2 31.5309048,209.8 91.5309048,201.4 C71.9309048,191.8 52.7309048,172.6 52.7309048,137.8 C52.7309048,86.6 95.5309048,0.2 158.330905,0.2 C176.730905,0.2 188.730905,11.8 190.730905,25.4 C199.530905,29.8 205.530905,37.4 205.530905,50.6 C205.530905,134.2 118.330905,315.8 48.3309048,315.8 Z M95.275,156.4 C95.275,176.4 101.275,191.2 110.875,197.2 C140.075,144 161.675,77.6 165.675,33.2 C123.675,53.2 95.275,116.8 95.275,156.4 Z M27.275,283.6 C50.875,280.4 75.675,255.6 97.275,221.2 C50.875,230.4 35.275,252.4 27.275,283.6 Z M375.527914,216.95343 C349.44117,251.773824 321.213298,281.8 302.875,281.8 C286.075,281.8 276.075,260.2 274.475,245.8 C273.275,245 272.075,244.2 270.875,243 C254.475,265.4 238.075,281.8 226.075,281.8 C205.675,281.8 196.875,256.6 196.075,240.2 C188.875,234.6 185.275,224.6 185.275,212.2 C185.275,154.6 245.275,92.2 280.875,92.2 C303.275,92.2 314.075,105 315.675,117 L324.875,103 C335.675,87.8 366.475,103.8 366.075,116.6 C349.675,138.6 317.275,198.6 301.675,237.4 C350.491085,217.716095 396.207521,151.924911 418.995019,119.343604 C423.901886,109.991057 428.257327,102.879865 432.675,97.2 C453.875,97.2 463.475,107.2 463.475,116 C463.475,122.4 453.875,143.2 442.275,166 C474.275,129.2 504.675,98 513.075,98 C525.875,98 535.875,106 536.275,113.2 C530.675,124 524.275,138.8 514.275,162.4 C553.475,118 587.875,97.2 598.675,97.2 C611.875,97.2 619.075,111.6 619.475,118.8 C600.675,150.8 578.675,191.2 561.875,233.2 C587.475,223.2 615.075,200.8 625.475,183.2 L627.075,183.2 C634.275,189.2 639.875,196.4 639.875,204.8 C638.675,222.4 582.675,278.8 563.475,279.2 C549.075,279.6 539.875,262.4 536.275,248.4 C532.275,244.4 529.475,238.4 528.675,229.6 C526.675,211.6 547.075,172.8 564.675,141.6 C535.075,169.2 504.275,204 472.275,266 C459.075,266 451.875,255.6 451.875,236 C451.875,215.6 469.475,177.6 486.675,145.6 C453.875,174.4 410.675,234.4 391.475,279.2 C378.275,279.2 368.675,261.6 368.275,245.6 C368.275,238.725616 371.374428,228.204846 375.527914,216.95343 Z M212.275,234.4 C260.275,217.2 295.875,146 304.675,121.2 C255.075,130.8 219.075,199.6 212.275,234.4 Z M750.625,224.5 C750.625,256 733.625,275.25 692.625,275.25 C651.875,275.25 634.875,254.5 634.875,215.5 L665.125,215.5 C665.125,236.5 673.125,248.5 693.875,248.5 C711.625,248.5 719.375,239 719.375,225.5 C719.375,186 635.875,203.5 636.125,138.75 C636.375,109.5 652.375,88.5 691.875,88.75 C733.375,88.75 747.875,108.25 747.875,146.75 L717.375,146.75 C717.375,128.75 713.375,115.75 691.875,115.75 C672.625,115.75 667.375,126.75 667.375,138 C667.375,177 750.625,159.25 750.625,224.5 Z M801.625,271 L801.875,121.75 L761.125,121.75 L761.125,93.25 L874.125,93.25 L874.125,121.75 L832.875,121.75 L832.625,271 L801.625,271 Z M1010.125,182.25 C1010.125,253.25 990.625,275.5 947.625,275.5 C904.875,275.5 885.375,253.25 885.375,182.25 C885.375,111.25 904.875,88.75 947.625,88.75 C990.625,88.75 1010.125,111.25 1010.125,182.25 Z M917.375,182.25 C917.375,234.25 926.625,247.25 947.625,247.25 C968.875,247.25 978.125,234.25 978.125,182.25 C978.125,130.25 968.875,117 947.625,117 C926.625,117 917.375,130.25 917.375,182.25 Z M1149.625,206.5 C1149.375,256.75 1130.375,275.5 1092.125,275.5 C1049.375,275.5 1030.125,253.25 1030.125,182.25 C1030.125,111.25 1049.375,88.75 1092.125,88.75 C1130.375,88.75 1149.625,107.25 1149.875,158.25 L1119.375,158.25 C1118.125,127.25 1109.625,117 1092.125,117 C1071.125,117 1062.125,130.25 1062.125,182.25 C1062.125,234.25 1071.125,247.25 1092.125,247.25 C1109.375,247.25 1118.125,236.75 1119.125,206.5 L1149.625,206.5 Z M1173.125,271 L1173.125,93.25 L1204.375,93.25 L1204.375,181.25 L1257.375,93.25 L1295.125,93.25 L1248.375,165.25 L1296.125,271 L1261.375,271 L1229.125,194.75 L1204.375,232.5 L1204.375,271 L1173.125,271 Z" id="Jam-STOCK" fill="#000000"></path>
    </g>
</svg>